<svg width="24" height="24" viewBox="0 0 24 24" fill="none" xmlns="http://www.w3.org/2000/svg">
  <path d="M18.8 8.2C18.2 8.5 17.6 8.6 17 8.7C17.7 8.2 18.2 7.5 18.4 6.7C17.8 7.1 17.1 7.4 16.3 7.5C15.7 6.9 14.9 6.5 14 6.5C12.2 6.5 10.7 8 10.7 9.8C10.7 10.1 10.7 10.4 10.8 10.7C8.2 10.6 5.9 9.4 4.4 7.5C4.1 8 3.9 8.6 3.9 9.2C3.9 10.4 4.5 11.4 5.4 12.1C4.9 12.1 4.4 12 4 11.7V11.8C4 13.4 5.1 14.8 6.7 15.1C6.4 15.2 6 15.3 5.6 15.3C5.4 15.3 5.2 15.3 5 15.2C5.4 16.6 6.8 17.6 8.4 17.6C7.1 18.6 5.5 19.2 3.8 19.2C3.5 19.2 3.2 19.2 3 19.1C4.6 20.1 6.4 20.7 8.4 20.7C14 20.7 17.1 16.1 17.1 12.1V11.7C17.7 11.2 18.3 10.7 18.8 10.1V8.2Z" fill="#9A9AA2"/>
</svg>
